# xmcd CD database file
#
# Track frame offsets:
#	182
#	16585
#	33622
#	47372
#	63277
#	79735
#	92620
#	105790
#	127482
#	140970
#	167032
#	182007
#	205745
#	229625
#	242302
#	255485
#	274960
#	296615
#	309830
#
# Disc length: 4395 seconds
#
# Revision: 1
# Processed by: cddbd v1.5.2PL0 Copyright (c) Steve Scherf et al.
# Submitted via: CDex 1.70beta2
#
DISCID=f9112913
DTITLE=Various Artist - SINGLES Hit Pops Anthology
DYEAR=1993
DGENRE=Pop
TTITLE0=Unchained Melody
TTITLE1=You've Lost That Lovin' Feelin'
TTITLE2=Teh Rain, The Park&Other Things
TTITLE3=Sugar Baby Love
TTITLE4=Alone Again(Naturally)
TTITLE5=Laughter in The Rain
TTITLE6=Come to Me
TTITLE7=Heart of Mine
TTITLE8=If I Can't Have You
TTITLE9=Reunited
TTITLE10=I Will Survive
TTITLE11=Fame
TTITLE12=Get Up(I Feel Like Being A)Sex Machine
TTITLE13=It's a Man's Man's Man's World
TTITLE14=Sha-La-La-La-Lee
TTITLE15=Night in White Satin
TTITLE16=Ramblin' Man
TTITLE17=Going Underground
TTITLE18=Night Birds
EXTD=YEAR: 1993
EXTT0=
EXTT1=
EXTT2=
EXTT3=
EXTT4=
EXTT5=
EXTT6=
EXTT7=
EXTT8=
EXTT9=
EXTT10=
EXTT11=
EXTT12=
EXTT13=
EXTT14=
EXTT15=
EXTT16=
EXTT17=
EXTT18=
PLAYORDER=
